# xmcd CD database file
#
# Track frame offsets:
#	150
#	19861
#	36470
#	52132
#	76360
#	97893
#	120065
#	141396
#	163418
#	191189
#	213934
#	237908
#	262889
#	284483
#	304917
#	327097
#
# Disc length: 4646 seconds
#
# Revision: 0
# Processed by: cddbd v1.5.2PL0 Copyright (c) Steve Scherf et al.
# Submitted via: CDex 1.79
#
DISCID=e8122410
DTITLE=LA INDIA - the greatest SALSA
DYEAR=2009
DGENRE=Salsa
TTITLE0=Estupida
TTITLE1=Soy Diferente con Cheka
TTITLE2=Ya No Queda Nada con Tito Nieves
TTITLE3=Me Canse De Ser La Otra
TTITLE4=Dicen Que Soy
TTITLE5=Que Ganas De Verte Nunca Mas
TTITLE6=Ese Hombre
TTITLE7=No Me Conviene
TTITLE8=Vivir Lo Nuestro con Marc Anthony
TTITLE9=Nunca Voy A Olvidarte
TTITLE10=Mi Mayor Venganza
TTITLE11=Si Tu Eres Ese Hombre
TTITLE12=Hazme El Amor con Oscar De Leon
TTITLE13=Sola
TTITLE14=Que Me Importa
TTITLE15=O Ella O Yo
EXTD=YEAR: 2009
EXTT0=
EXTT1=
EXTT2=
EXTT3=
EXTT4=
EXTT5=
EXTT6=
EXTT7=
EXTT8=
EXTT9=
EXTT10=
EXTT11=
EXTT12=
EXTT13=
EXTT14=
EXTT15=
PLAYORDER=
